<svg width="22" height="18" viewBox="0 0 22 18" fill="none" xmlns="http://www.w3.org/2000/svg">
<path d="M20.9429 8.67318L20.9429 8.67651C20.9465 9.75702 20.6248 10.838 19.9817 11.8343L19.9791 11.8383C19.2131 13.0376 18.0133 14.0788 16.4846 14.8186C14.9562 15.5581 13.1794 15.9566 11.3554 15.9572L11.3536 15.9572C9.83081 15.9603 8.33498 15.6815 6.99015 15.15C6.79274 15.072 6.57562 15.0588 6.37022 15.1124L1.24107 16.4502L2.80949 12.7685C2.93959 12.4632 2.90967 12.1131 2.72965 11.8343C2.08655 10.838 1.76489 9.75702 1.7685 8.67651L1.7685 8.67368C1.76914 7.37979 2.22879 6.08692 3.13579 4.93933C4.04576 3.788 5.37134 2.82937 6.98679 2.19764L6.9868 2.19764L6.99015 2.19632C8.33498 1.66482 9.83081 1.38608 11.3536 1.38919H11.3557H11.9565C14.3609 1.49705 16.5981 2.29299 18.2491 3.58482C19.8899 4.86872 20.8129 6.52772 20.9429 8.22259L20.9429 8.67318Z" stroke="#BF286F" stroke-width="2" stroke-linecap="round" stroke-linejoin="round"/>
</svg>
