<svg width="33" height="36" viewBox="0 0 33 36" fill="none" xmlns="http://www.w3.org/2000/svg">
<path fill-rule="evenodd" clip-rule="evenodd" d="M12.8654 1.45004C15.0279 0.201549 17.6922 0.201548 19.8546 1.45004L29.0062 6.73373C31.1687 7.98223 32.5008 10.2895 32.5008 12.7865V23.3539C32.5008 25.8509 31.1687 28.1582 29.0062 29.4067L19.8546 34.6904C17.6922 35.9389 15.0279 35.9389 12.8654 34.6904L3.71382 29.4067C1.55137 28.1582 0.219238 25.8509 0.219238 23.3539V12.7865C0.219238 10.2895 1.55137 7.98223 3.71382 6.73373L12.8654 1.45004ZM11.8979 22.4392L13.6642 15.4669L20.8227 13.7004L18.7774 20.7658L11.8979 22.4392Z" fill="#D0B47D"/>
</svg>
