<svg width="23" height="18" viewBox="0 0 23 18" fill="none" xmlns="http://www.w3.org/2000/svg">
<path d="M6.16548 1.38916L6.16613 1.38916C7.01015 1.38862 7.8385 1.57371 8.5801 1.92487C9.32149 2.27594 9.94977 2.7803 10.4176 3.38793C10.6068 3.63362 10.8992 3.77765 11.2093 3.77785C11.5194 3.77805 11.812 3.63439 12.0015 3.38895C12.9221 2.19655 14.4702 1.38916 16.2544 1.38916C19.1961 1.38916 21.4199 3.54331 21.4199 6.01081C21.4199 8.40161 19.8485 10.8357 17.6089 12.898C15.5062 14.8341 12.9955 16.2727 11.21 16.8813C9.42447 16.2727 6.9137 14.8341 4.81105 12.898C2.57139 10.8357 1 8.40161 1 6.01081C1 3.54331 3.22383 1.38916 6.16548 1.38916Z" stroke="#BF286F" stroke-width="2" stroke-linecap="round" stroke-linejoin="round"/>
</svg>
