<svg width="38" height="38" viewBox="0 0 38 38" fill="none" xmlns="http://www.w3.org/2000/svg">
<path d="M15.844 3.20617C17.7653 2.09694 20.1324 2.09694 22.0536 3.20617L31.2052 8.48986C33.1265 9.5991 34.31 11.649 34.31 13.8675V24.4349C34.31 26.6534 33.1265 28.7033 31.2052 29.8126L22.0536 35.0962C20.1324 36.2055 17.7653 36.2055 15.844 35.0962L6.6924 29.8126C4.77115 28.7033 3.58761 26.6534 3.58761 24.4349V13.8675C3.58761 11.6491 4.77115 9.5991 6.6924 8.48986L15.844 3.20617Z" fill="#D0B47D" stroke="#D0B47D" stroke-width="1.55918"/>
<path d="M10.6475 23.9941V27.4523H14.1057L24.3054 17.2527L20.8471 13.7944L10.6475 23.9941ZM26.9798 14.5783C27.0653 14.493 27.1331 14.3917 27.1794 14.2801C27.2256 14.1685 27.2495 14.0489 27.2495 13.9282C27.2495 13.8074 27.2256 13.6878 27.1794 13.5762C27.1331 13.4647 27.0653 13.3633 26.9798 13.278L24.8218 11.12C24.7365 11.0345 24.6351 10.9667 24.5236 10.9204C24.412 10.8742 24.2924 10.8503 24.1716 10.8503C24.0509 10.8503 23.9313 10.8742 23.8197 10.9204C23.7081 10.9667 23.6068 11.0345 23.5215 11.12L21.8338 12.8077L25.2921 16.266L26.9798 14.5783Z" fill="#0D0D0D"/>
</svg>
