<svg width="18" height="18" viewBox="0 0 18 18" fill="none" xmlns="http://www.w3.org/2000/svg">
<rect width="18" height="18" rx="9" fill="#D0B47D"/>
<path d="M4.90069 13.0993H5.70617L10.6685 8.13699L9.86302 7.33151L4.90069 12.2938V13.0993ZM13.1281 7.30274L10.6829 4.8863L11.4884 4.08082C11.7089 3.86027 11.9799 3.75 12.3013 3.75C12.6227 3.75 12.8935 3.86027 13.1137 4.08082L13.9192 4.8863C14.1397 5.10685 14.2548 5.37304 14.2644 5.68488C14.274 5.99671 14.1685 6.26271 13.9479 6.48288L13.1281 7.30274ZM4.32534 14.25C4.16233 14.25 4.02559 14.1948 3.91513 14.0843C3.80466 13.9738 3.74962 13.8373 3.75 13.6747V12.0493C3.75 11.9726 3.76439 11.8982 3.79315 11.8261C3.82192 11.754 3.86507 11.6893 3.9226 11.6322L9.84863 5.70616L12.2938 8.15137L6.36781 14.0774C6.31028 14.1349 6.24565 14.1781 6.17392 14.2068C6.10219 14.2356 6.02778 14.25 5.95069 14.25H4.32534ZM10.2658 7.73425L9.86302 7.33151L10.6685 8.13699L10.2658 7.73425Z" fill="#0D0D0D"/>
</svg>
