<svg width="24" height="18" viewBox="0 0 24 18" fill="none" xmlns="http://www.w3.org/2000/svg">
<path d="M10.0871 1.53999C10.173 0.73331 11.1121 0.0686883 12.059 0.55371C14.0276 1.58768 15.8853 2.76573 17.6819 4.02496C19.8993 5.5957 21.6789 7.07613 22.9393 8.25824C23.4857 8.77269 23.4348 9.58546 22.9121 10.0766C21.664 11.2344 20.3439 12.3279 18.958 13.352C16.7655 14.9623 14.4948 16.5229 12.0228 17.774C11.1845 18.1981 10.276 17.7131 10.1142 16.9612L10.095 16.8466L9.83816 13.2201C7.78361 13.2586 5.79469 13.8918 4.204 15.0698L3.90419 15.2951L3.75938 15.4006L3.47993 15.5955C3.43468 15.6259 3.38942 15.6563 3.34417 15.6847L3.08396 15.8471C3.00314 15.8948 2.9209 15.9404 2.83732 15.9841L2.60426 16.0967C1.51137 16.5807 0.907227 16.1525 0.907227 14.2327C0.907227 9.76404 4.57848 5.78747 9.54174 5.18475L9.83476 5.15329L10.0871 1.541V1.53999ZM12.2468 3.03564L12.0296 6.55864C12.0223 6.67907 11.9673 6.79322 11.8747 6.88061C11.782 6.96801 11.6576 7.02294 11.5239 7.03554L9.9841 7.17963C6.51649 7.551 3.76503 9.9822 3.25479 13.1602C4.95074 12.0387 6.96354 11.3665 9.06431 11.2201L9.51346 11.1968L11.4413 11.1603C11.5879 11.1574 11.7301 11.2058 11.8377 11.2951C11.9454 11.3845 12.0101 11.5078 12.0183 11.6392L12.2412 15.288C14.0547 14.252 15.7834 13.0597 17.5178 11.7873C18.6379 10.9527 19.7164 10.0742 20.7501 9.15421L20.4582 8.89445L19.8292 8.35362C18.6914 7.39769 17.5084 6.48599 16.2835 5.62107C14.9843 4.70241 13.6373 3.83963 12.2468 3.03564V3.03564Z" fill="#BF286F"/>
</svg>
